<svg width="214" height="224" viewBox="0 0 214 224" fill="none" xmlns="http://www.w3.org/2000/svg">
<rect y="10" width="214" height="214" rx="50" fill="url(#paint0_linear_10_2)"/>
<path d="M48.504 101.152C39.352 101.152 32.344 99.104 27.48 95.008C22.68 90.848 20.28 84.736 20.28 76.672V56.128C20.28 48.064 22.68 41.984 27.48 37.888C32.344 33.728 39.352 31.648 48.504 31.648C55.096 31.648 60.472 32.704 64.632 34.816C68.856 36.928 72.184 40.064 74.616 44.224L64.344 51.232C62.36 48.032 60.248 45.728 58.008 44.32C55.768 42.912 52.6 42.208 48.504 42.208C43.384 42.208 39.64 43.392 37.272 45.76C34.968 48.064 33.816 51.52 33.816 56.128V76.672C33.816 81.28 34.968 84.768 37.272 87.136C39.64 89.44 43.384 90.592 48.504 90.592C52.984 90.592 56.376 89.856 58.68 88.384C61.048 86.848 62.232 84.64 62.232 81.76V78.784C62.232 74.816 60.408 72.832 56.76 72.832H45.816V62.272H60.6C65.72 62.272 69.496 63.456 71.928 65.824C74.36 68.192 75.576 71.872 75.576 76.864V82.72C75.576 88.48 73.144 92.992 68.28 96.256C63.416 99.52 56.824 101.152 48.504 101.152ZM108.392 100C100.2 100 94.3115 98.208 90.7275 94.624C87.2075 91.04 85.4475 85.856 85.4475 79.072V32.8H98.9835V79.072C98.9835 82.592 99.7515 85.216 101.288 86.944C102.824 88.608 105.192 89.44 108.392 89.44H129.896V100H108.392Z" fill="white"/>
<defs>
<linearGradient id="paint0_linear_10_2" x1="0" y1="10" x2="214" y2="224" gradientUnits="userSpaceOnUse">
<stop stop-color="#FF0000"/>
<stop offset="1" stop-color="#00B6A1"/>
</linearGradient>
</defs>
</svg>
